#!OML:ASF I:\salsa\salsa 7_09\Patient 1\Session 1\dancermale.ASF
:FULLY-SPECIFIED
:DEGREES
1717
root 5.72861 17.4283 2.17492 1608.58 85.3697 163.233
lowerback -8.78245 3.20166 0.399461
upperback -1.77778 4.27754 -0.161551
thorax 3.11068 2.15215 0.0946798
lowerneck -11.0014 -10.9462 -12.1388
upperneck 9.91313 48.8826 10.0417
head 413.958 82.6715 -522.623
rclavicle -1.85367e-014 3.77691e-015
rhumerus 7.93981 14.0506 -96.0957
rradius 49.5492
rwrist 8.45882
rhand -39.751 -0.565627
rfingers 7.12502
rthumb -12.7277 -30.1577
lclavicle -1.85367e-014 3.77691e-015
lhumerus -29.6642 8.06714 96.4455
lradius 26.7337
lwrist 3.63974
lhand -22.5303 45.4499
lfingers 7.12502
lthumb 3.89672 1155.39
rfemur -5.84111 0.96058 23.8407
rtibia 8.20692
rfoot -13.1486 -17.2477
rtoes 16.797
lfemur -17.4507 -2.67316 -19.3177
ltibia 13.362
lfoot -6.36238 0.183824
ltoes -9.97796
1718
root 5.73294 17.43 2.17799 1608.01 85.7468 162.628
lowerback -8.7927 3.22458 0.442995
upperback -1.82152 4.30223 -0.0766842
thorax 3.06774 2.16515 0.15954
lowerneck -10.9956 -10.7858 -12.2023
upperneck 10.0667 49.1933 10.2339
head 415.823 83.1366 -520.935
rclavicle -3.37685e-014 -8.94531e-015
rhumerus 8.05983 14.001 -95.8574
rradius 48.9757
rwrist 9.13734
rhand -39.0928 -0.516205
rfingers 7.12502
rthumb -12.0931 -30.1467
lclavicle -3.37685e-014 -8.94531e-015
lhumerus -30.258 8.30228 96.3487
lradius 27.034
lwrist 4.08542
lhand -22.5938 45.4872
lfingers 7.12502
lthumb 3.83536 1155.43
rfemur -5.90332 0.925344 23.9362
rtibia 8.24667
rfoot -13.0518 -16.9963
rtoes 16.5843
lfemur -17.5122 -2.55084 -19.1944
ltibia 13.5165
lfoot -6.43661 0.433861
ltoes -9.93701
1719
root 5.73692 17.4293 2.18361 1606.09 86.2094 160.598
lowerback -8.85965 3.28926 0.432821
upperback -1.89659 4.3895 -0.0306117
thorax 3.02292 2.20938 0.223774
lowerneck -10.9677 -10.6456 -12.3507
upperneck 10.104 49.3241 10.2841
head 417.4 83.5059 -519.416
rclavicle 4.03657e-014 3.57812e-015
rhumerus 8.13349 14.3808 -95.6028
rradius 48.4289
rwrist 8.44196
rhand -38.9939 -0.278741
rfingers 7.12502
rthumb -11.9977 -29.9149
lclavicle 4.03657e-014 3.57812e-015
lhumerus -30.8514 7.97057 96.3761
lradius 27.3788
lwrist 4.48201
lhand -22.7369 45.5357
lfingers 7.12502
lthumb 3.69716 1155.48
rfemur -6.05562 0.907688 23.9616
rtibia 8.28599
rfoot -12.9099 -16.6388
rtoes 16.1519
lfemur -17.6571 -2.31468 -19.1201
ltibia 13.7012
lfoot -6.53758 0.703567
ltoes -10.0155
1720
root 5.74221 17.4284 2.19045 1604.89 86.662 159.204
lowerback -9.10741 3.35278 0.478794
upperback -1.94925 4.46848 0.0370851
thorax 3.10364 2.24954 0.290906
lowerneck -11.0025 -10.5306 -12.5107
upperneck 10.0199 49.2793 10.1995
head 417.55 83.6474 -519.238
rclavicle 5.05037e-014 0
rhumerus 8.22166 15.1933 -95.3167
rradius 47.9298
rwrist 6.69825
rhand -39.4298 -0.441311
rfingers 7.12502
rthumb -12.418 -30.0524
lclavicle 5.05037e-014 0
lhumerus -31.3879 7.309 96.4775
lradius 27.7373
lwrist 4.72276
lhand -22.8031 45.3675
lfingers 7.12502
lthumb 3.63329 1155.32
rfemur -6.29582 0.965012 24.0763
rtibia 8.33036
rfoot -12.8125 -16.3296
rtoes 15.7842
lfemur -17.9088 -2.06817 -18.9584
ltibia 13.9082
lfoot -6.63028 0.947401
ltoes -9.81365
1721
root 5.75851 17.4313 2.1939 1599.81 87.115 154.337
lowerback -9.1137 3.4386 0.4435
upperback -1.83323 4.58082 0.074934
thorax 3.22173 2.30301 0.367705
lowerneck -10.9028 -10.4614 -12.7977
upperneck 9.65486 48.683 9.80811
head 415.375 83.5147 -521.112
rclavicle -6.66674e-014 -1.07344e-014
rhumerus 8.35006 15.1945 -95.2104
rradius 47.2037
rwrist 6.94486
rhand -39.0788 -0.442799
rfingers 7.12502
rthumb -12.0796 -30.0741
lclavicle -6.66674e-014 -1.07344e-014
lhumerus -31.9325 6.46293 96.6314
lradius 28.1776
lwrist 4.80881
lhand -22.7628 45.2143
lfingers 7.12502
lthumb 3.67214 1155.16
rfemur -5.94797 0.992541 23.9926
rtibia 8.21274
rfoot -12.7373 -15.9832
rtoes 15.4235
lfemur -17.5106 -2.0319 -18.983
ltibia 13.8606
lfoot -6.66161 1.38617
ltoes -9.31686
1722
root 5.76183 17.4325 2.20126 1596.9 87.438 151.498
lowerback -9.05097 3.48727 0.491921
upperback -1.81768 4.63967 0.0966895
thorax 3.20513 2.33234 0.366572
lowerneck -10.6559 -10.4147 -13.0971
upperneck 9.19246 47.7583 9.3556
head 412.052 83.3153 -524.056
rclavicle -2.59662e-015 -3.18055e-015
rhumerus 8.43395 15.3484 -95.1182
rradius 46.5342
rwrist 6.91106
rhand -38.9488 -0.423982
rfingers 7.12502
rthumb -11.9543 -30.0626
lclavicle -2.59662e-015 -3.18055e-015
lhumerus -32.4844 5.52318 96.7489
lradius 28.6461
lwrist 4.75286
lhand -22.5497 44.8604
lfingers 7.12502
lthumb 3.87798 1154.8
rfemur -5.82392 1.07153 24.0364
rtibia 8.13736
rfoot -12.7714 -15.7658
rtoes 15.5051
lfemur -17.4288 -2.12792 -18.8819
ltibia 13.9822
lfoot -6.71403 1.80503
ltoes -8.95508
1723
root 5.75903 17.4327 2.20959 1594.45 87.6292 149.131
lowerback -8.93676 3.50292 0.516379
upperback -1.78674 4.65706 0.10895
thorax 3.1749 2.34074 0.361174
lowerneck -10.5745 -10.3548 -13.1997
upperneck 9.00791 47.3788 9.22602
head 410.79 83.3594 -525.23
rclavicle 7.51655e-015 8.74653e-015
rhumerus 8.52474 15.5043 -95.0028
rradius 45.908
rwrist 6.90176
rhand -38.7369 -0.495417
rfingers 7.12502
rthumb -11.7499 -30.1459
lclavicle 7.51655e-015 8.74653e-015
lhumerus -32.9163 4.56328 96.8516
lradius 29.049
lwrist 4.65572
lhand -22.2697 44.4345
lfingers 7.12502
lthumb 4.14834 1154.37
rfemur -5.70482 1.1535 24.0599
rtibia 8.05234
rfoot -12.8862 -15.6188
rtoes 16.0461
lfemur -17.4421 -2.236 -18.8266
ltibia 14.2204
lfoot -6.77535 2.14054
ltoes -8.95242
1724
root 5.75612 17.4326 2.21707 1593.7 87.8331 148.325
lowerback -9.01043 3.53159 0.631799
upperback -1.76357 4.6827 0.127892
thorax 3.24731 2.35404 0.325768
lowerneck -10.7461 -10.2303 -13.2137
upperneck 9.22949 47.9778 9.52209
head 415.264 84.1203 -521.084
rclavicle 2.60532e-014 8.34896e-015
rhumerus 8.56297 15.482 -94.9729
rradius 45.2878
rwrist 6.98295
rhand -38.6516 -0.456714
rfingers 7.12502
rthumb -11.6677 -30.1118
lclavicle 2.60532e-014 8.34896e-015
lhumerus -33.2381 3.37981 97.0222
lradius 29.368
lwrist 4.8919
lhand -21.9834 44.2264
lfingers 7.12502
lthumb 4.42475 1154.16
rfemur -5.71796 1.22398 24.196
rtibia 7.93112
rfoot -12.835 -15.5447
rtoes 16.0194
lfemur -17.6539 -2.19496 -18.6977
ltibia 14.5121
lfoot -6.84089 2.31721
ltoes -9.22684
1725
root 5.7528 17.4313 2.22456 1593.43 87.9992 147.935
lowerback -9.14201 3.56186 0.735554
upperback -1.75541 4.71145 0.148107
thorax 3.33528 2.36906 0.301952
lowerneck -11.0663 -10.1131 -13.0812
upperneck 9.75263 49.2004 10.1191
head 426.186 85.1032 -510.717
rclavicle -3.62161e-014 -7.95139e-016
rhumerus 8.52375 15.3337 -95.0231
rradius 44.6936
rwrist 6.97635
rhand -38.6719 -0.563648
rfingers 7.12502
rthumb -11.6873 -30.2177
lclavicle -3.62161e-014 -7.95139e-016
lhumerus -33.5021 1.92936 97.3075
lradius 29.5985
lwrist 5.5546
lhand -21.7317 44.1886
lfingers 7.12502
lthumb 4.66785 1154.12
rfemur -5.77773 1.26941 24.3392
rtibia 7.75427
rfoot -12.5599 -15.5035
rtoes 15.6133
lfemur -17.9472 -2.12902 -18.5782
ltibia 14.8151
lfoot -6.91063 2.41103
ltoes -9.51687
1726
root 5.74856 17.4316 2.23214 1591.73 88.2367 146.228
lowerback -9.17793 3.63618 0.826092
upperback -1.70317 4.79835 0.186958
thorax 3.41372 2.41227 0.30704
lowerneck -11.2405 -10.0619 -13.0412
upperneck 9.94982 49.7043 10.382
head 433.849 85.5762 -503.317
rclavicle -2.52332e-014 6.36111e-015
rhumerus 8.48685 15.2486 -95.0376
rradius 44.1212
rwrist 6.88649
rhand -38.6004 -1.08139
rfingers 7.12502
rthumb -11.6183 -30.7393
lclavicle -2.52332e-014 6.36111e-015
lhumerus -33.6365 0.616255 97.5805
lradius 29.6889
lwrist 6.22462
lhand -21.6245 44.2412
lfingers 7.12502
lthumb 4.77138 1154.17
rfemur -5.75024 1.4247 24.4751
rtibia 7.62895
rfoot -12.3242 -15.4381
rtoes 15.4298
lfemur -18.0683 -2.09612 -18.4426
ltibia 15.0688
lfoot -6.96219 2.6571
ltoes -9.77597
1727
root 5.74377 17.4311 2.24065 1589.67 88.393 144.258
lowerback -9.13731 3.70477 0.867845
upperback -1.60995 4.88184 0.218915
thorax 3.48902 2.45286 0.328156
lowerneck -11.2184 -10.0534 -13.1616
upperneck 9.79575 49.4811 10.2892
head 436.131 85.7997 -501.012
rclavicle -4.69629e-015 7.55382e-015
rhumerus 8.37071 15.1135 -95.0592
rradius 43.6531
rwrist 6.8247
rhand -38.4386 -1.54456
rfingers 7.12502
rthumb -11.4622 -31.2112
lclavicle -4.69629e-015 7.55382e-015
lhumerus -33.6173 -0.325462 97.7226
lradius 29.6094
lwrist 6.54711
lhand -21.5337 44.3619
lfingers 7.12502
lthumb 4.85905 1154.29
rfemur -5.64202 1.39809 24.5333
rtibia 7.54308
rfoot -12.1725 -15.2484
rtoes 15.5225
lfemur -18.1177 -2.12945 -18.3588
ltibia 15.3965
lfoot -7.0469 2.92441
ltoes -9.84897
1728
root 5.73706 17.4296 2.24862 1589.43 88.5369 144.037
lowerback -9.17231 3.79311 1.00072
upperback -1.53074 4.98358 0.221282
thorax 3.60219 2.50382 0.275718
lowerneck -11.1078 -10.1077 -13.2646
upperneck 9.46909 48.8472 10.0205
head 433.003 85.7827 -503.951
rclavicle -1.81391e-014 5.96354e-015
rhumerus 8.12339 14.7953 -95.1434
rradius 43.4254
rwrist 6.79797
rhand -37.9916 -2.03493
rfingers 7.12502
rthumb -11.0311 -31.7251
lclavicle -1.81391e-014 5.96354e-015
lhumerus -33.5228 -1.0635 97.7371
lradius 29.4726
lwrist 6.58388
lhand -21.3839 44.5637
lfingers 7.12502
lthumb 5.00363 1154.48
rfemur -5.66707 1.11125 24.6054
rtibia 7.48573
rfoot -11.9057 -14.8659
rtoes 15.6287
lfemur -18.2874 -2.173 -18.223
ltibia 15.771
lfoot -7.129 3.16691
ltoes -9.66574
1729
root 5.7211 17.4253 2.25981 1593.18 88.521 147.661
lowerback -9.24659 3.81192 1.08292
upperback -1.51102 4.99974 0.20779
thorax 3.67217 2.51264 0.224796
lowerneck -10.9835 -10.2284 -13.2433
upperneck 9.02715 47.8907 9.62976
head 424.479 85.3557 -512.139
rclavicle 1.5617e-014 3.97569e-015
rhumerus 7.86246 14.5348 -95.2499
rradius 43.2704
rwrist 6.48648
rhand -37.4187 -2.78369
rfingers 7.12502
rthumb -10.4786 -32.5025
lclavicle 1.5617e-014 3.97569e-015
lhumerus -33.4177 -1.60989 97.6377
lradius 29.3891
lwrist 6.56277
lhand -21.3166 44.7695
lfingers 7.12502
lthumb 5.06862 1154.69
rfemur -5.89976 1.0173 24.73
rtibia 7.44757
rfoot -11.6492 -14.8184
rtoes 15.8572
lfemur -18.7583 -2.18809 -18.0961
ltibia 16.2794
lfoot -7.21472 3.19374
ltoes -9.48722
1730
root 5.69471 17.4206 2.27397 1604.09 88.3609 158.35
lowerback -9.28575 3.73605 1.18649
upperback -1.54167 4.88695 0.282977
thorax 3.66305 2.45822 0.232289
lowerneck -10.9976 -10.3155 -13.1437
upperneck 8.81316 47.4487 9.45323
head 421.262 85.0766 -515.191
rclavicle -3.23025e-015 -9.93923e-015
rhumerus 7.59048 14.3053 -95.3801
rradius 43.0382
rwrist 6.04216
rhand -37.0921 -3.28947
rfingers 7.12502
rthumb -10.1635 -33.024
lclavicle -3.23025e-015 -9.93923e-015
lhumerus -33.2506 -1.78995 97.4802
lradius 29.2597
lwrist 6.44991
lhand -21.1954 44.8609
lfingers 7.12502
lthumb 5.18566 1154.78
rfemur -6.22697 1.1966 25.0498
rtibia 7.42882
rfoot -11.5343 -14.9508
rtoes 18.0564
lfemur -19.5001 -2.25966 -17.8196
ltibia 16.9947
lfoot -7.29807 3.08165
ltoes -9.2433
1731
root 5.66991 17.4169 2.28452 1611.82 88.1272 166.129
lowerback -9.09141 3.65965 1.29568
upperback -1.46618 4.77183 0.38063
thorax 3.63317 2.40156 0.247625
lowerneck -11.0778 -10.2715 -13.2596
upperneck 8.84975 47.6731 9.55124
head 427.333 85.6171 -509.279
rclavicle -5.36719e-015 3.97569e-016
rhumerus 7.31811 14.0124 -95.5091
rradius 42.755
rwrist 5.66147
rhand -37.1538 -3.70224
rfingers 7.12502
rthumb -10.223 -33.4338
lclavicle -5.36719e-015 3.97569e-016
lhumerus -32.9554 -1.81134 97.3247
lradius 29.0312
lwrist 6.30695
lhand -20.9566 44.9133
lfingers 7.12502
lthumb 5.41623 1154.82
rfemur -6.1868 1.29697 25.2852
rtibia 7.33296
rfoot -11.483 -14.8883
rtoes 21.4277
lfemur -19.97 -2.4233 -17.6128
ltibia 17.7649
lfoot -7.39255 3.05928
ltoes -9.23448
